<svg width="137" height="36" viewBox="0 0 137 36" fill="none" xmlns="http://www.w3.org/2000/svg">
<path d="M1.14441e-05 36L40.32 36L1.30177e-05 2.05225e-06L1.22573e-05 17.395L6.84681 23.5966L1.19863e-05 23.5966L1.14441e-05 36Z" fill="url(#paint0_linear)"/>
<path d="M41.76 36L1.44 36L41.76 2.05225e-06L41.76 17.395L34.9132 23.5966L41.76 23.5966L41.76 36Z" fill="url(#paint1_linear)"/>
<path d="M63.7921 21.5424H69.4369V22.2048L67.3057 22.752L61.8049 27.4752L68.1985 34.704L70.1281 34.9056V35.5968H63.3025V34.9056L64.9153 34.7616L59.5585 28.4544V34.7616L61.3441 34.9056V35.5968H54.8641V34.9056L56.7361 34.7616V14.9184L54.2017 14.8032L54.1729 14.1408L59.5585 13.536V28.1088L65.6641 22.752L63.7921 22.2048V21.5424Z" fill="#145D7A"/>
<path d="M78.0618 35.5968H71.4378V34.9056L73.3386 34.7616V14.9184L70.7754 14.8032V14.1408L76.161 13.536V34.7616L78.0618 34.9056V35.5968Z" fill="#145D7A"/>
<path d="M86.1885 35.9136C84.211 35.9136 82.6174 35.2416 81.4078 33.8976C80.1982 32.5536 79.5934 30.7776 79.5934 28.5696C79.5934 26.3616 80.2269 24.5856 81.4942 23.2416C82.7806 21.8976 84.3934 21.2256 86.3326 21.2256C88.2718 21.2256 89.7214 21.6672 90.6814 22.5504C91.6413 23.4144 92.1213 24.624 92.1213 26.1792C92.1213 26.64 92.083 27.1008 92.0062 27.5616H82.7038V28.5696C82.7038 30.72 83.011 32.352 83.6254 33.4656C84.2397 34.56 85.2477 35.1072 86.6493 35.1072C88.6269 35.1072 90.1534 34.2432 91.2286 32.5152C91.651 32.6496 91.8622 32.8512 91.8622 33.12C91.8622 33.6 91.4206 34.1568 90.5373 34.7904C90.1149 35.0976 89.5198 35.3664 88.7518 35.5968C87.9837 35.808 87.1293 35.9136 86.1885 35.9136ZM89.3853 25.5744C89.3853 24.6912 89.2029 23.9328 88.8382 23.2992C88.339 22.4544 87.5326 22.032 86.419 22.032C84.3454 22.032 83.1357 23.5296 82.7901 26.5248H89.3278C89.3661 26.1984 89.3853 25.8816 89.3853 25.5744Z" fill="#145D7A"/>
<path d="M100.772 35.9136C98.7943 35.9136 97.2007 35.2416 95.9911 33.8976C94.7815 32.5536 94.1767 30.7776 94.1767 28.5696C94.1767 26.3616 94.8103 24.5856 96.0775 23.2416C97.3639 21.8976 98.9767 21.2256 100.916 21.2256C102.855 21.2256 104.305 21.6672 105.265 22.5504C106.225 23.4144 106.705 24.624 106.705 26.1792C106.705 26.64 106.666 27.1008 106.59 27.5616H97.2871V28.5696C97.2871 30.72 97.5943 32.352 98.2087 33.4656C98.8231 34.56 99.8311 35.1072 101.233 35.1072C103.21 35.1072 104.737 34.2432 105.812 32.5152C106.234 32.6496 106.446 32.8512 106.446 33.12C106.446 33.6 106.004 34.1568 105.121 34.7904C104.698 35.0976 104.103 35.3664 103.335 35.5968C102.567 35.808 101.713 35.9136 100.772 35.9136ZM103.969 25.5744C103.969 24.6912 103.786 23.9328 103.422 23.2992C102.922 22.4544 102.116 22.032 101.002 22.032C98.9287 22.032 97.7191 23.5296 97.3735 26.5248H103.911C103.95 26.1984 103.969 25.8816 103.969 25.5744Z" fill="#145D7A"/>
<path d="M113.311 24.5952C114.174 22.368 115.912 21.2544 118.523 21.2544C119.829 21.2544 120.885 21.648 121.691 22.4352C122.498 23.2032 122.901 24.3072 122.901 25.7472C122.901 28.224 122.824 31.2288 122.671 34.7616L124.658 34.9056V35.5968H118.293V34.9056L119.848 34.7904C120.002 30.4512 120.078 27.9648 120.078 27.3312C120.078 26.6976 120.069 26.2176 120.05 25.8912C120.03 25.5456 119.973 25.1328 119.877 24.6528C119.8 24.1536 119.675 23.76 119.503 23.472C119.08 22.7616 118.418 22.4064 117.515 22.4064C116.287 22.4064 115.278 22.9152 114.491 23.9328C113.704 24.9504 113.311 26.0544 113.311 27.2448V34.7616L115.471 34.9056V35.5968H108.587V34.9056L110.488 34.7616V22.5792L108.04 22.464V21.8016L113.195 21.456L113.051 24.5664L113.311 24.5952Z" fill="#145D7A"/>
<path d="M134.856 21.1968C135.355 21.1968 135.748 21.3216 136.036 21.5712C136.324 21.8016 136.468 22.128 136.468 22.5504C136.468 23.28 136.19 23.76 135.633 23.9904C135.326 23.7408 134.769 23.616 133.963 23.616C133.156 23.616 132.379 23.8848 131.63 24.4224C130.9 24.9408 130.536 25.536 130.536 26.208V34.7616L133.128 34.9056V35.5968H125.812V34.9056L127.713 34.7904V22.4928L125.438 22.3776V21.7152L130.536 21.3984L130.363 24.9408H130.478C130.804 23.904 131.4 23.0208 132.264 22.2912C133.147 21.5616 134.011 21.1968 134.856 21.1968Z" fill="#145D7A"/>
<defs>
<linearGradient id="paint0_linear" x1="13.536" y1="29.52" x2="-7.52044" y2="19.2285" gradientUnits="userSpaceOnUse">
<stop stop-color="#236C89"/>
<stop offset="1" stop-color="#7DBCD6"/>
</linearGradient>
<linearGradient id="paint1_linear" x1="15.8183" y1="41.0672" x2="41.6179" y2="-0.136575" gradientUnits="userSpaceOnUse">
<stop stop-color="#68DBAB"/>
<stop offset="1" stop-color="#2FB8A7"/>
</linearGradient>
</defs>
</svg>
